:FULLY-SPECIFIED
:FORCE-ALL-JOINTS-BE-3DOF
:DEGREES
404
root 9.69799 16.875 20.4866 6.58273 -1.56752 -7.62163
lfemur -43.0862 -3.79254 -8.62974
ltibia 21.0711 0 0
lfoot -15.5815 13.4313 0
ltoes -12.4329 0 0
rfemur 17.732 5.85836 33.1381
rtibia -1.57702e-14 0 0
rfoot -7.6387 6.94841 0
rtoes -11.3997 0 0
lowerback -8.23455 3.22111 3.43205
upperback 0.164407 3.76641 4.04989
thorax 4.73745 1.89835 2.75535
lowerneck -19.0316 -6.09429 -13.3564
upperneck 21.125 -7.79551 12.9861
head 11.0485 -3.15678 5.78891
lclavicle -2.74751e-14 -2.8718e-14 0
lhumerus -53.7011 -9.25466 96.4074
lradius 27.1382 0 0
lwrist 8.10652 0 0
lhand -11.315 -27.7175 0
lfingers 7.12502 0 0
lthumb 14.7168 1.73728 0
rclavicle -2.74751e-14 -2.8718e-14 0
rhumerus -27.3228 15.1071 -85.04
rradius 39.4428 0 0
rwrist -17.8871 0 0
rhand -30.6825 -20.8162 0
rfingers 7.12502 0 0
rthumb -3.97658 -50.7583 0
405
root 9.72403 16.8389 20.7598 6.722 -1.58752 -7.67757
lfemur -43.0045 -2.5993 -9.46609
ltibia 22.0388 0 0
lfoot -14.4914 12.2508 0
ltoes -12.25 0 0
rfemur 18.5653 5.79495 33.0871
rtibia -2.12037e-14 0 0
rfoot -7.0812 6.95169 0
rtoes -12.5634 0 0
lowerback -8.42206 3.25942 3.38699
upperback 0.0755181 3.81712 3.99726
thorax 4.74927 1.92264 2.74045
lowerneck -19.1204 -6.12692 -13.3336
upperneck 21.1789 -7.8443 12.9881
head 11.0926 -3.17369 5.77903
lclavicle -7.32471e-15 -8.93796e-15 0
lhumerus -53.7814 -9.15053 96.3016
lradius 26.9737 0 0
lwrist 7.60157 0 0
lhand -10.6532 -26.9779 0
lfingers 7.12502 0 0
lthumb 15.3541 2.42585 0
rclavicle -7.32471e-15 -8.93796e-15 0
rhumerus -27.9278 14.8351 -85.399
rradius 39.1056 0 0
rwrist -17.5538 0 0
rhand -30.3551 -21.1808 0
rfingers 7.12502 0 0
rthumb -3.66038 -51.128 0
406
root 9.74986 16.8007 21.0363 6.86514 -1.60536 -7.72444
lfemur -42.8898 -1.23774 -10.4294
ltibia 23.1088 0 0
lfoot -13.2974 10.9507 0
ltoes -12.1989 0 0
rfemur 19.4082 5.72994 33.0269
rtibia -2.5842e-14 0 0
rfoot -6.49932 6.93922 0
rtoes -13.835 0 0
lowerback -8.61182 3.30445 3.33098
upperback -0.017471 3.87833 3.93497
thorax 4.75776 1.95198 2.72278
lowerneck -19.2317 -6.17121 -13.3129
upperneck 21.2491 -7.90899 12.9942
head 11.15 -3.19672 5.76886
lclavicle 1.64742e-14 1.39895e-14 0
lhumerus -53.8296 -9.06031 96.1706
lradius 26.7801 0 0
lwrist 7.05527 0 0
lhand -9.94088 -26.1293 0
lfingers 7.12502 0 0
lthumb 16.04 3.21946 0
rclavicle 1.64742e-14 1.39895e-14 0
rhumerus -28.5658 14.5435 -85.7621
rradius 38.7656 0 0
rwrist -17.2413 0 0
rhand -29.9887 -21.6238 0
rfingers 7.12502 0 0
rthumb -3.3066 -51.5768 0
407
root 9.76964 16.7678 21.2574 6.97591 -1.61921 -7.77251
lfemur -42.7701 -0.0398021 -11.2635
ltibia 24.0258 0 0
lfoot -12.382 9.7782 0
ltoes -12.2264 0 0
rfemur 20.0914 5.67791 32.9956
rtibia -2.96852e-14 0 0
rfoot -6.05949 6.92475 0
rtoes -14.9553 0 0
lowerback -8.76588 3.34627 3.29021
upperback -0.0895735 3.93422 3.88644
thorax 4.76825 1.97893 2.70887
lowerneck -19.3333 -6.2116 -13.2917
upperneck 21.3149 -7.96699 12.9928
head 11.2024 -3.21784 5.75673
lclavicle 3.87823e-14 3.52659e-14 0
lhumerus -53.8599 -9.00242 96.0605
lradius 26.6197 0 0
lwrist 6.59685 0 0
lhand -9.36144 -25.4068 0
lfingers 7.12502 0 0
lthumb 16.5981 3.89785 0
rclavicle 3.87823e-14 3.52659e-14 0
rhumerus -29.083 14.3079 -86.0513
rradius 38.4994 0 0
rwrist -17.0184 0 0
rhand -29.6697 -22.0173 0
rfingers 7.12502 0 0
rthumb -2.99853 -51.9753 0
408
root 9.77755 16.7472 21.3647 7.01805 -1.62726 -7.83202
lfemur -42.6736 0.662591 -11.7121
ltibia 24.5345 0 0
lfoot -12.1275 8.98037 0
ltoes -12.2793 0 0
rfemur 20.4454 5.65344 33.0318
rtibia -3.27332e-14 0 0
rfoot -5.92814 6.92204 0
rtoes -15.6654 0 0
lowerback -8.84628 3.37492 3.29085
upperback -0.115802 3.96898 3.87509
thorax 4.78607 1.99604 2.70525
lowerneck -19.3931 -6.23253 -13.2671
upperneck 21.3559 -7.99573 12.9726
head 11.2315 -3.22902 5.74095
lclavicle 5.44601e-14 5.00929e-14 0
lhumerus -53.8864 -8.99528 96.0172
lradius 26.555 0 0
lwrist 6.35557 0 0
lhand -9.09814 -25.0454 0
lfingers 7.12502 0 0
lthumb 16.8517 4.24077 0
rclavicle 5.44601e-14 5.00929e-14 0
rhumerus -29.3253 14.2041 -86.1886
rradius 38.3834 0 0
rwrist -16.9544 0 0
rhand -29.4843 -22.2332 0
rfingers 7.12502 0 0
rthumb -2.81943 -52.1943 0
409
root 9.76776 16.7463 21.2997 6.95533 -1.62769 -7.91323
lfemur -42.6284 0.537503 -11.5189
ltibia 24.3795 0 0
lfoot -12.9164 8.80434 0
ltoes -12.3043 0 0
rfemur 20.301 5.67112 33.1737
rtibia -3.49861e-14 0 0
rfoot -6.2717 6.94485 0
rtoes -15.7064 0 0
lowerback -8.81505 3.38045 3.35908
upperback -0.0711697 3.96681 3.92433
thorax 4.81657 1.99588 2.71843
lowerneck -19.3789 -6.21844 -13.2366
upperneck 21.3514 -7.97265 12.9222
head 11.2191 -3.22222 5.71982
lclavicle 5.83681e-14 5.36719e-14 0
lhumerus -53.9232 -9.05733 96.0867
lradius 26.6485 0 0
lwrist 6.46069 0 0
lhand -9.33428 -25.28 0
lfingers 7.12502 0 0
lthumb 16.6246 4.02795 0
rclavicle 5.83681e-14 5.36719e-14 0
rhumerus -29.139 14.3078 -86.096
rradius 38.494 0 0
rwrist -17.1182 0 0
rhand -29.5186 -22.1435 0
rfingers 7.12502 0 0
rthumb -2.85258 -52.1042 0
